<?xml version="1.0" encoding="UTF-8" standalone="no"?>
<!-- Generator: Adobe Illustrator 25.3.1, SVG Export Plug-In . SVG Version: 6.00 Build 0)  -->

<svg
   version="1.1"
   id="Vrstva_1"
   x="0px"
   y="0px"
   viewBox="0 0 193 56.9"
   style="enable-background:new 0 0 193 56.9;"
   xml:space="preserve"
   sodipodi:docname="rict.svg"
   inkscape:version="1.1 (c68e22c387, 2021-05-23)"
   xmlns:inkscape="http://www.inkscape.org/namespaces/inkscape"
   xmlns:sodipodi="http://sodipodi.sourceforge.net/DTD/sodipodi-0.dtd"
   xmlns="http://www.w3.org/2000/svg"
   xmlns:svg="http://www.w3.org/2000/svg"><defs
   id="defs65" /><sodipodi:namedview
   id="namedview63"
   pagecolor="#ffffff"
   bordercolor="#666666"
   borderopacity="1.0"
   inkscape:pageshadow="2"
   inkscape:pageopacity="0.0"
   inkscape:pagecheckerboard="0"
   showgrid="false"
   inkscape:zoom="7.6217617"
   inkscape:cx="96.5"
   inkscape:cy="28.405506"
   inkscape:window-width="1920"
   inkscape:window-height="1009"
   inkscape:window-x="-8"
   inkscape:window-y="-8"
   inkscape:window-maximized="1"
   inkscape:current-layer="g46" />
<style
   type="text/css"
   id="style38">
	.st0{fill:#24356C;}
</style>
<g
   id="g46">
	<rect
   x="136.4"
   y="25.1"
   class="st0"
   width="4.9"
   height="19.6"
   id="rect40"
   style="fill:#000000" />
	<path
   class="st0"
   d="M159.2,39.1c-1,1-2.4,1.7-4,1.7c-3.1,0-5.6-2.5-5.6-5.6s2.5-5.6,5.6-5.6c1.6,0,3,0.6,4,1.6l3.1-3.1   c-1.8-1.8-4.3-2.9-7.1-2.9c-5.5,0-10,4.5-10,10s4.5,10,10,10c2.8,0,5.3-1.1,7.1-2.9L159.2,39.1z"
   id="path42"
   style="fill:#000000" />
	<path
   class="st0"
   d="M172.4,40.8c-1.4,0-2.4-0.8-2.4-2.6h0v-7.9h5.1v-3.9h-5l0-5.7h-4.5v1.2v4.5v3.9v2.7v5.2l0,0   c0,4.5,2.6,6.8,6.6,6.6c1.4,0,2.4-0.3,3.8-0.8l-1.3-3.9C173.9,40.6,173.1,40.8,172.4,40.8z"
   id="path44"
   style="fill:#000000" />
</g>
<g
   id="g58"
   style="fill:#000000">
	<path
   class="st0"
   d="M54.3,20.7c-6.7,0-12.2,5.5-12.2,12.2s5.5,12.2,12.2,12.2s12.2-5.5,12.2-12.2S61,20.7,54.3,20.7z M54.3,39.8   c-3.8,0-6.9-3.1-6.9-6.9s3.1-6.9,6.9-6.9s6.9,3.1,6.9,6.9C61.2,36.7,58.1,39.8,54.3,39.8z"
   id="path48"
   style="fill:#000000" />
	<path
   class="st0"
   d="M105.9,20.7c-6.7,0-12.2,5.5-12.2,12.2s5.5,12.2,12.2,12.2s12.2-5.5,12.2-12.2   C118.1,26.2,112.6,20.7,105.9,20.7z M105.9,39.8c-3.8,0-6.9-3.1-6.9-6.9s3.1-6.9,6.9-6.9s6.9,3.1,6.9,6.9   C112.8,36.7,109.7,39.8,105.9,39.8z"
   id="path50"
   style="fill:#000000" />
	<path
   class="st0"
   d="M130.8,39.9c-0.7,0.4-1.6,0.6-2.4,0.6c-1.5,0-2.6-0.9-2.6-2.8h0v-8.6h5.5v-4.2h-5.5l0-10.3h-4.9V20v4.9v4.2v3   v5.6l0,0c0,4.9,2.8,7.4,7.1,7.2c1.5,0,2.6-0.3,4.1-0.8L130.8,39.9z"
   id="path52"
   style="fill:#000000" />
	<path
   class="st0"
   d="M80.4,22.4c-2.3,0-4.5,0.7-6.3,2v-9.9h-4.9v19.2c0,6.2,5,11.2,11.2,11.2s11.2-5,11.2-11.2   C91.6,27.5,86.6,22.4,80.4,22.4z M80.4,40c-3.5,0-6.3-2.8-6.3-6.3c0-3.5,2.8-6.3,6.3-6.3s6.3,2.8,6.3,6.3S83.8,40,80.4,40z"
   id="path54"
   style="fill:#000000" />
	<path
   class="st0"
   d="M33,34c5.7-1.2,7.6-5.3,7.6-9.5c0-5.2-3.7-9.9-10.9-10c-1.2,0-2.4,0-3.5,0v5.3h3.5c3.6,0,5.2,2.4,5.2,4.8   s-1.5,4.8-5.2,4.8h-8.6v-4.2h-5.7v19.4h5.7V34.6h5.5l8.8,10.1h6.8v-0.4L33,34z"
   id="path56"
   style="fill:#000000" />
</g>
<polygon
   class="st0"
   points="21.5,10.4 11.4,10.4 11.4,20.6 16.6,20.6 16.6,15.7 21.5,15.7 "
   id="polygon60"
   style="fill:#000000" />
</svg>
